<?xml version="1.0" standalone="no"?>
<!DOCTYPE svg PUBLIC "-//W3C//DTD SVG 20010904//EN"
 "http://www.w3.org/TR/2001/REC-SVG-20010904/DTD/svg10.dtd">
<svg version="1.0" xmlns="http://www.w3.org/2000/svg"
 width="512.000000pt" height="512.000000pt" viewBox="0 0 512.000000 512.000000"
 preserveAspectRatio="xMidYMid meet">

<g transform="translate(0.000000,512.000000) scale(0.100000,-0.100000)"
fill="#000000" stroke="none">
<path d="M1652 5101 c-29 -10 -67 -31 -84 -47 -41 -39 -78 -119 -78 -171 l0
-43 -202 -101 c-199 -99 -203 -101 -228 -85 -79 52 -174 63 -251 29 -120 -54
-181 -213 -124 -324 l15 -29 -182 -230 -183 -229 -56 6 c-273 27 -385 -338
-141 -461 l32 -17 0 -259 0 -260 -49 -30 c-139 -86 -159 -268 -41 -382 101
-97 248 -92 347 11 l40 42 218 -40 c120 -22 221 -44 225 -48 4 -4 13 -26 20
-47 24 -76 135 -156 216 -156 19 0 31 -23 99 -194 l78 -193 -31 -44 c-56 -83
-66 -164 -28 -244 45 -96 121 -145 223 -145 68 0 132 26 173 70 l29 31 354
-102 355 -101 6 -37 c9 -55 58 -126 110 -156 l46 -27 0 -302 0 -303 -49 -30
c-90 -56 -131 -171 -101 -281 17 -67 90 -136 165 -158 248 -72 423 245 229
415 -20 18 -47 36 -60 41 l-24 10 0 303 0 304 24 11 c40 18 96 73 119 116 43
83 22 211 -46 274 l-25 24 50 149 c27 82 55 149 61 148 7 0 174 -55 372 -122
l360 -122 7 -45 c10 -58 52 -117 110 -155 l47 -30 0 -425 1 -426 -52 -34 c-72
-48 -107 -112 -108 -198 0 -73 19 -124 63 -170 51 -53 102 -75 177 -76 126 -1
223 83 245 211 14 89 -48 209 -130 247 l-35 17 0 429 c0 427 0 429 21 435 33
11 98 75 121 119 20 38 28 125 16 177 -2 11 100 102 310 277 173 144 317 262
320 262 4 0 25 -7 47 -15 64 -23 124 -19 186 13 173 87 183 322 18 424 l-49
31 0 342 0 342 24 11 c40 18 96 73 119 116 29 56 29 155 0 211 -54 102 -164
159 -265 136 l-36 -9 -187 234 -186 233 15 29 c26 50 30 105 12 166 -46 156
-227 225 -365 138 l-52 -32 -322 149 -322 148 -6 56 c-12 110 -96 195 -210
212 -92 14 -197 -38 -240 -119 l-24 -46 -467 0 -466 0 -26 45 c-33 55 -80 92
-142 111 -61 18 -87 17 -152 -5z m154 -193 c26 -51 -13 -118 -70 -118 -71 1
-109 78 -66 133 36 46 109 38 136 -15z m1394 14 c62 -78 -40 -176 -114 -109
-44 39 -36 110 15 131 40 17 75 9 99 -22z m-290 -141 c0 -10 -384 -373 -400
-379 -8 -3 -469 336 -510 374 -12 12 56 14 448 14 281 0 462 -4 462 -9z m732
-231 l323 -149 7 -63 c4 -35 4 -65 0 -69 -9 -7 -407 -364 -442 -395 -24 -22
-27 -22 -65 -9 -56 20 -123 18 -174 -5 l-44 -20 -296 221 c-163 122 -299 225
-304 228 -4 4 79 87 184 185 l190 178 44 -12 c69 -19 146 -9 202 27 26 17 49
32 50 32 1 1 147 -66 325 -149z m-2056 129 c3 -6 25 -20 48 -30 51 -23 136
-24 197 -3 l46 17 249 -187 c137 -103 249 -191 249 -195 0 -5 -81 -83 -179
-175 -148 -139 -182 -166 -200 -161 -12 4 -48 9 -82 12 -48 4 -71 1 -113 -17
-54 -24 -117 -86 -127 -127 -4 -16 -15 -23 -42 -27 -52 -7 -542 -30 -547 -25
-2 3 -18 110 -35 239 l-31 235 45 40 c55 50 86 110 86 170 l0 45 198 99 c197
100 225 110 238 90z m-621 -164 c50 -49 17 -135 -53 -135 -48 0 -82 32 -82 79
0 74 83 109 135 56z m3299 -76 c19 -15 26 -30 26 -55 0 -47 -14 -70 -50 -83
-84 -29 -149 74 -84 134 33 30 73 32 108 4z m-3404 -233 c0 -6 13 -110 30
-231 16 -121 27 -221 25 -223 -2 -2 -101 -9 -220 -15 -184 -9 -218 -8 -226 4
-5 8 -7 20 -4 26 2 7 85 114 185 237 127 160 184 224 195 220 8 -4 15 -11 15
-18z m1975 -262 l314 -236 -6 -51 c-3 -29 -8 -55 -12 -59 -7 -8 -642 -338
-650 -338 -3 0 -85 79 -182 176 l-176 175 13 50 c10 37 11 64 3 102 l-9 51 42
43 c51 50 342 322 346 323 1 0 144 -106 317 -236z m1326 196 c23 -6 63 -9 88
-5 l46 6 170 -212 c221 -276 200 -242 181 -290 -9 -22 -16 -59 -16 -83 l0 -44
-287 -157 c-158 -86 -290 -157 -294 -158 -4 -1 -102 76 -218 172 l-210 175 6
62 c3 34 1 75 -5 92 -10 30 -10 30 231 246 132 119 246 215 253 212 7 -3 32
-10 55 -16z m-2228 -352 c69 -36 60 -125 -16 -151 -22 -8 -66 8 -83 31 -17 22
-18 74 -1 94 28 35 65 45 100 26z m-1625 -104 c30 -34 28 -75 -4 -108 -33 -32
-74 -34 -108 -3 -42 37 -36 105 12 132 34 19 71 11 100 -21z m3138 4 c28 -30
23 -86 -10 -114 -32 -28 -62 -30 -94 -8 -33 23 -43 57 -30 95 19 54 96 70 134
27z m1476 -72 c23 -17 39 -61 31 -83 -22 -64 -94 -83 -138 -38 -51 50 -17 135
53 135 20 0 45 -6 54 -14z m-3233 -28 c36 -58 127 -116 183 -118 13 0 28 -34
63 -147 43 -137 82 -262 90 -289 2 -7 -151 -92 -348 -194 -281 -145 -355 -180
-367 -171 -8 6 -31 19 -50 27 -19 9 -37 18 -39 20 -7 7 -118 869 -112 876 5 6
313 22 488 26 70 2 72 2 92 -30z m-745 -35 c13 -83 106 -803 106 -822 0 -12
-24 -44 -57 -76 l-57 -55 -196 35 c-107 19 -207 38 -221 41 -21 4 -31 16 -44
51 -21 55 -74 116 -115 133 l-30 12 0 268 0 268 23 6 c30 7 97 74 114 114 7
17 14 33 16 33 1 1 97 7 212 14 116 6 217 13 227 13 12 2 18 -9 22 -35z m2292
-114 c26 -43 168 -63 238 -34 34 14 39 14 59 -2 111 -88 347 -288 347 -293 0
-9 -645 -360 -660 -360 -7 0 -24 9 -39 20 -53 37 -158 47 -212 19 -12 -6 -58
34 -192 169 l-176 177 302 157 c166 86 307 157 314 157 6 1 15 -4 19 -10z
m-984 -301 c-37 -20 -70 -34 -74 -30 -3 4 -25 68 -48 142 -22 74 -43 142 -46
150 -3 8 49 -39 115 -105 l120 -119 -67 -38z m2536 -165 c2 -354 2 -362 -35
-363 -6 0 -138 106 -292 234 -240 200 -279 236 -264 245 10 6 128 71 263 144
l245 135 40 -24 40 -24 3 -347z m-2149 -117 c189 -189 194 -196 183 -221 -29
-64 -5 -174 52 -243 l28 -32 -57 -171 c-35 -105 -61 -169 -69 -166 -6 2 -75
25 -153 51 l-142 47 -15 47 c-100 310 -236 766 -229 773 9 9 195 108 203 109
3 0 93 -88 199 -194z m1682 -108 c160 -134 287 -244 282 -245 -19 -6 -1243
113 -1244 121 0 9 639 363 659 365 8 1 144 -108 303 -241z m-2210 10 c17 -57
64 -208 104 -335 40 -128 69 -233 66 -233 -3 0 -203 66 -444 146 -445 148
-465 157 -417 186 36 21 646 336 652 337 4 1 21 -45 39 -101z m-1803 -64 c30
-34 28 -75 -4 -108 -33 -32 -74 -34 -108 -3 -45 40 -36 109 17 132 39 17 65
11 95 -21z m2793 -67 c25 -19 41 -57 35 -83 -14 -54 -86 -83 -128 -50 -61 46
-29 145 47 145 17 0 37 -5 46 -12z m-1900 -80 c42 -32 50 -84 17 -121 -56 -61
-162 -10 -142 69 13 52 86 82 125 52z m3725 -88 c42 -35 29 -120 -23 -140 -97
-37 -158 96 -68 149 22 13 70 8 91 -9z m-1346 -29 c140 -12 435 -38 655 -58
347 -32 400 -39 400 -53 0 -9 -138 -132 -313 -278 l-313 -261 -36 15 c-81 34
-197 12 -263 -51 l-26 -24 -364 121 c-201 67 -367 124 -370 126 -2 2 21 79 51
171 52 157 57 167 85 175 71 21 138 62 167 104 23 32 36 41 51 38 12 -2 136
-14 276 -25z m-1230 -451 c11 -21 140 -435 140 -450 0 -7 -11 -25 -25 -40
l-26 -26 -350 101 -351 101 -17 51 c-9 28 -25 63 -34 78 -29 43 -95 85 -157
98 l-58 12 -77 193 c-73 183 -76 195 -61 212 16 18 35 13 513 -149 272 -92
499 -173 503 -181z m380 -124 c0 -5 -19 -66 -41 -134 -26 -78 -44 -119 -49
-110 -4 8 -27 77 -50 154 -24 77 -45 145 -47 152 -3 7 35 -1 91 -20 53 -17 96
-36 96 -42z m-1180 -153 c28 -35 25 -74 -6 -106 -63 -63 -162 0 -132 85 20 58
100 70 138 21z m2387 -74 c30 -28 31 -83 1 -115 -31 -33 -90 -32 -117 3 -63
80 42 181 116 112z m-1247 -238 c22 -12 42 -64 33 -88 -22 -63 -94 -82 -138
-37 -50 49 -17 135 51 135 20 0 44 -4 54 -10z m-2 -1076 c73 -51 23 -163 -64
-146 -13 2 -33 16 -44 30 -58 73 32 170 108 116z m1246 -5 c33 -26 36 -84 6
-117 -49 -52 -140 -16 -140 55 0 70 78 106 134 62z"/>
</g>
</svg>
